<svg id="Layer_2" data-name="Layer 2" xmlns="http://www.w3.org/2000/svg" viewBox="0 0 676.59 660.71"><defs><style>.cls-1{fill:#020203;}.cls-2{fill:#067241;}</style></defs><title>Seu_Vizinho_Logo</title><path class="cls-1" d="M332.83,15.57,334,42.41C489.08,43,614.92,167.64,617.56,322.24l26.79-1.18C641.09,151.79,502.86,15.59,332.83,15.57Zm284.7,318.17C614.22,480.37,500.09,599.65,355.61,611.1l1.17,26.82c159.13-12.11,284.86-143.75,287.59-305.35ZM332.8,612C186.94,612,66.69,502.36,50,361l-26.7,2.66C41.33,518.58,173,638.83,332.8,638.83q6.29,0,12.51-.25l-1.17-26.8Q338.5,612,332.8,612ZM322.51,42.59l-1.18-26.81c-166.8,6-300.16,143.15-300.16,311.42q0,11.6.84,23l26.7-2.66Q48,337.46,48,327.2C48,173.35,170,48,322.51,42.59Z"/><path class="cls-1" d="M174.24,257.65s2.82,63.06-1.42,88.94-28.7,126.12,29.65,144,208.47,9.88,244.24,0,52.45-40.94,52.81-54.59S492.82,267.53,482,244c-3.29-10.35-17.88,9.88-17.41,13.18s13.65,101.64,12.23,126.11,7.06,52.71-17.41,75.77-204.7,24.47-235.76,15.06-40.58-25.88-37-67.3,4.53-65.88,4.53-67.76,5.17-20.71,5.17-28.24-.47-35.29-.47-40.47.47-10.59-1.17-13.41S181.53,252,174.24,257.65Z"/><path class="cls-1" d="M130.47,249.88c-6.67,1.46-12.47,4-13.65-20.23s-1.64-27.53,10.83-29.18,104.94-.23,198.11-93.41c2.36-4.24,3-1.35,7.07,3.23S396.35,164.94,467.41,180c23.53,4.71,80.53-1.24,84.41-1.24s6.18,2.12,6.89,13.77,2.82,31.59.17,34.41-54.17-1.06-73.94-8.47-114.7-55.06-137.29-72c-6.71-5.29-15.41-12.59-17.59-13.53s-4.18-2.47-11.12,3.53-82.47,70.71-136.12,94C157.76,242.82,134.24,249.06,130.47,249.88Z"/><path class="cls-2" d="M314.71,376.24c-15.77-7.42-37.18-8.95-43.53,12.47s4.7,42.35,25.64,38.82S331,404.24,331,404.24s4.42-37.88-17-82c.47-7.42,4.47-17.53,25.88-25.3s43.77-8,65.88-6.82c-5.64-11.06-18.11-29.65-20.47-41.18s-9.41-36.94-9.88-39.29-6.12,5.64-7.53,8.23-18.35,25.88-47.53,36.47-14.11,12.47-45.41,14.59c-1.65,2.59.94,4.47,3.3,7.06S320.59,332.71,314.71,376.24Z"/></svg>